# xmcd CD Database Entry
#
# Track frame offsets:
# 150
# 22777
# 50389
# 73476
# 91138
# 106720
# 132572
# 148094
# 170701
# 198318
# 220545
#
# Disc length: 3172 seconds
#
# Revision: 2
# Processed by: cddbd v1.4b41PL3 Copyright (c) Steve Scherf et al.
# Submitted via: tcd 2.0b
#
DISCID=9b0c620b
DTITLE=Various/Real Sadness and Gregorian Mysteries
DYEAR=1900
DGENRE=
TTITLE0=Enigma/Sadeness Part I: Extended Trance Mix
TTITLE1=Magna Canta/Hymn
TTITLE2=Lesiem/Lesiem
TTITLE3=Amoure/Humming Chorus
TTITLE4=Innocent Voices/Muse
TTITLE5=Prayers/Alleluia
TTITLE6=Dario F./Ave Maria... Oh Mary
TTITLE7=Odi et Amo/Pange Lingua
TTITLE8=100 Debija/Noslepmus
TTITLE9=Pilgrimage/Through the Seas of Life
TTITLE10=Trance Opera/Conquest of Paradise
EXTD=
EXTT0=
EXTT1=
EXTT2=
EXTT3=
EXTT4=featuring Le Mystere des Voix Bulgares\n
EXTT5=
EXTT6=
EXTT7=
EXTT8=
EXTT9=
EXTT10=Vangelis remix
PLAYORDER=
